<svg xmlns="http://www.w3.org/2000/svg" xmlns:xlink="http://www.w3.org/1999/xlink" width="3872.98" height="3872.98" viewBox="0 0 3872.98 3872.98">
<defs fill="#adc2c4">
<clipPath id="clip-0" fill="#adc2c4">
<path clip-rule="evenodd" d="M 859.644531 0 L 3013.339844 0 C 3486.140625 0 3872.980469 386.839844 3872.980469 859.640625 L 3872.980469 3013.339844 C 3872.980469 3486.140625 3486.140625 3872.980469 3013.339844 3872.980469 L 859.644531 3872.980469 C 386.839844 3872.980469 0 3486.140625 0 3013.339844 L 0 859.640625 C 0 386.839844 386.839844 0 859.644531 0 " fill="#adc2c4"/>
</clipPath>
<linearGradient id="linear-pattern-0" gradientUnits="userSpaceOnUse" x1="0" y1="0" x2="1" y2="0" gradientTransform="matrix(3872.98, 0, 0, 3872.98, 0, 1936.49)" fill="#adc2c4">
<stop offset="0" stop-color="#b4c5c7" stop-opacity="1" fill="#adc2c4"/>

</linearGradient>
<clipPath id="clip-1" fill="#adc2c4">
<path clip-rule="nonzero" d="M 697 696 L 3176 696 L 3176 3177 L 697 3177 Z M 697 696 " fill="#adc2c4"/>
</clipPath>
<clipPath id="clip-2" fill="#adc2c4">
<path clip-rule="evenodd" d="M 986.097656 2936.449219 L 781.457031 2936.449219 L 781.457031 3091.878906 L 986.097656 3091.878906 Z M 2066.789062 2852.121094 L 2066.789062 2805.328125 C 2066.789062 2782.039062 2047.921875 2763.171875 2024.628906 2763.171875 C 2001.339844 2763.171875 1982.460938 2782.039062 1982.460938 2805.328125 L 1982.460938 3091.878906 L 1070.421875 3091.878906 L 1070.421875 2805.328125 C 1070.421875 2782.039062 1051.550781 2763.171875 1028.261719 2763.171875 C 1004.96875 2763.171875 986.097656 2782.039062 986.097656 2805.328125 L 986.097656 2852.121094 L 781.457031 2852.121094 L 781.457031 2738.199219 C 781.457031 2543.171875 940.121094 2384.511719 1135.140625 2384.511719 L 1228.441406 2384.511719 C 1249 2530.570312 1374.808594 2643.300781 1526.449219 2643.300781 C 1678.089844 2643.300781 1803.890625 2530.570312 1824.449219 2384.511719 L 1917.75 2384.511719 C 2112.78125 2384.511719 2271.429688 2543.171875 2271.429688 2738.199219 L 2271.429688 2852.121094 Z M 2271.429688 2936.449219 L 2066.789062 2936.449219 L 2066.789062 3091.878906 L 2271.429688 3091.878906 Z M 1777.738281 1707 L 1682.449219 1780.410156 L 1370.441406 1780.410156 L 1275.148438 1707 Z M 1859.378906 1622.671875 L 1859.378906 1529.328125 L 1193.5 1529.328125 L 1193.5 1622.671875 Z M 1182.53125 1445.011719 L 1870.351562 1445.011719 L 1926.710938 1260.800781 L 1525.53125 1185.039062 L 1126.160156 1260.769531 Z M 1109.179688 1664.238281 L 1109.179688 1493.46875 L 1031.761719 1240.441406 C 1024.429688 1216.46875 1039.589844 1191.371094 1064.21875 1186.691406 L 1517.648438 1100.710938 C 1522.828125 1099.730469 1528.140625 1099.730469 1533.328125 1100.710938 L 1988.621094 1186.691406 C 2013.28125 1191.339844 2028.460938 1216.460938 2021.121094 1240.449219 L 1943.710938 1493.460938 L 1943.710938 1664.191406 L 1897.511719 1887.800781 C 1871.03125 2013.121094 1814.871094 2111.890625 1738.761719 2174.601562 L 1809.820312 2300.191406 L 1917.75 2300.191406 C 2159.269531 2300.191406 2355.761719 2496.679688 2355.761719 2738.199219 L 2355.761719 3134.039062 C 2355.75 3157.320312 2336.878906 3176.199219 2313.589844 3176.199219 L 739.296875 3176.199219 C 716.011719 3176.199219 697.136719 3157.328125 697.136719 3134.039062 L 697.136719 2738.199219 C 697.136719 2496.679688 893.625 2300.191406 1135.140625 2300.191406 L 1243.03125 2300.191406 L 1313.980469 2174.46875 C 1237.941406 2111.75 1181.839844 2013.03125 1155.378906 1887.800781 Z M 1696.800781 1864.730469 L 1356.089844 1864.730469 C 1346.78125 1864.730469 1337.730469 1861.648438 1330.351562 1855.96875 L 1216.25 1768.058594 L 1237.871094 1870.359375 C 1269.539062 2020.191406 1360.648438 2166.75 1526.449219 2166.75 L 1526.449219 2166.738281 C 1692.238281 2166.738281 1783.359375 2020.199219 1815.019531 1870.359375 L 1836.640625 1768.058594 L 1722.539062 1855.96875 C 1715.160156 1861.648438 1706.121094 1864.730469 1696.800781 1864.730469 Z M 2096.171875 1664.421875 L 2096.171875 738.941406 C 2096.171875 715.660156 2115.039062 696.78125 2138.328125 696.78125 L 3133.679688 696.78125 C 3156.96875 696.78125 3175.851562 715.648438 3175.851562 738.941406 L 3175.851562 1815.578125 C 3175.839844 1838.871094 3156.96875 1857.738281 3133.679688 1857.738281 L 2138.328125 1857.738281 C 2115.039062 1857.738281 2096.171875 1838.871094 2096.171875 1815.578125 Z M 2547.121094 983.140625 L 2547.121094 781.101562 L 2724.898438 781.101562 L 2724.898438 983.140625 Z M 2767.058594 1067.46875 L 2504.960938 1067.46875 C 2481.679688 1067.46875 2462.808594 1048.589844 2462.808594 1025.300781 L 2462.808594 781.101562 L 2180.488281 781.101562 L 2180.488281 1622.261719 L 3091.53125 1622.261719 L 3091.53125 781.101562 L 2809.21875 781.101562 L 2809.21875 1025.300781 C 2809.21875 1048.589844 2790.339844 1067.46875 2767.058594 1067.46875 Z M 2982.449219 1413.878906 L 2793.25 1413.878906 C 2737.789062 1413.878906 2737.789062 1329.558594 2793.25 1329.558594 L 2982.449219 1329.558594 C 3037.910156 1329.558594 3037.910156 1413.878906 2982.449219 1413.878906 Z M 2982.449219 1541.089844 L 2604.058594 1541.089844 C 2548.601562 1541.089844 2548.601562 1456.761719 2604.058594 1456.761719 L 2982.449219 1456.769531 C 3037.910156 1456.769531 3037.910156 1541.089844 2982.449219 1541.089844 Z M 3091.53125 1706.578125 L 2180.488281 1706.578125 L 2180.488281 1773.421875 L 3091.53125 1773.421875 Z M 2421.121094 2337.648438 L 2701.539062 2562.53125 L 2701.539062 2494.019531 C 2701.539062 2470.730469 2720.410156 2451.859375 2743.699219 2451.859375 L 3091.519531 2451.859375 L 3091.519531 2223.449219 L 2743.699219 2223.449219 C 2720.421875 2223.449219 2701.539062 2204.578125 2701.539062 2181.289062 L 2701.539062 2112.78125 Z M 2717.320312 2683.269531 L 2327.339844 2370.539062 C 2306.320312 2353.691406 2306.320312 2321.621094 2327.339844 2304.769531 L 2717.320312 1992.039062 C 2744.820312 1969.988281 2785.851562 1989.691406 2785.851562 2024.929688 L 2785.851562 2139.128906 L 3133.671875 2139.128906 C 3156.960938 2139.128906 3175.839844 2158.011719 3175.839844 2181.300781 L 3175.839844 2494.019531 C 3175.839844 2517.300781 3156.960938 2536.179688 3133.671875 2536.179688 L 2785.859375 2536.179688 L 2785.859375 2650.371094 C 2785.859375 2686.050781 2744.519531 2705.070312 2717.320312 2683.269531 Z M 1385.191406 2219.851562 L 1310.078125 2352.949219 C 1315.628906 2467.5 1410.558594 2558.980469 1526.449219 2558.980469 C 1642.328125 2558.980469 1737.25 2467.511719 1742.808594 2352.988281 L 1667.53125 2219.941406 C 1579.398438 2261.449219 1473.289062 2261.441406 1385.191406 2219.851562 " fill="#adc2c4"/>
</clipPath>
<linearGradient id="linear-pattern-1" gradientUnits="userSpaceOnUse" x1="0.000000000000000056" y1="0" x2="1.000001" y2="0" gradientTransform="matrix(2478.71, 0, 0, 2478.71, 697.137, 1936.49)" fill="#adc2c4">
<stop offset="0" stop-color="#b4c5c7" stop-opacity="1" fill="#adc2c4"/>

<stop offset="1" stop-color="#adc2c4" stop-opacity="1" fill="#adc2c4"/>
</linearGradient>
</defs>
<g clip-path="url(#clip-0)">
<path fill-rule="nonzero" fill="url(#linear-pattern-0)" d="M 0 0 L 0 3872.980469 L 3872.980469 3872.980469 L 3872.980469 0 Z M 0 0 "/>
</g>
<path fill-rule="evenodd" fill="rgb(100%, 100%, 100%)" fill-opacity="1" d="M 1033.089844 311.921875 L 2839.890625 311.921875 C 3236.539062 311.921875 3561.058594 636.449219 3561.058594 1033.089844 L 3561.058594 2839.890625 C 3561.058594 3236.539062 3236.539062 3561.058594 2839.890625 3561.058594 L 1033.089844 3561.058594 C 636.445312 3561.058594 311.917969 3236.539062 311.917969 2839.890625 L 311.917969 1033.089844 C 311.917969 636.449219 636.445312 311.921875 1033.089844 311.921875 "/>
<g clip-path="url(#clip-1)">
<g clip-path="url(#clip-2)">
<path fill-rule="nonzero" fill="url(#linear-pattern-1)" d="M 697.136719 696.78125 L 697.136719 3176.199219 L 3175.851562 3176.199219 L 3175.851562 696.78125 Z M 697.136719 696.78125 "/>
</g>
</g>
</svg>