<svg xmlns="http://www.w3.org/2000/svg" viewBox="747.7000732421875 421 233.10009765625 156" width="233.10009765625" height="156"><g transform="matrix(1, 0, 0, 1, 0, 0)"><path id="XMLID_584_" class="st0" d="M814.4,530c-13,0-23.5,10.5-23.5,23.5c0,13,10.5,23.5,23.5,23.5c13,0,23.5-10.5,23.5-23.5&#10;&#9;&#9;&#9;C837.9,540.5,827.4,530,814.4,530z M814.4,564.1c-5.9,0-10.6-4.8-10.6-10.6c0-5.9,4.8-10.6,10.6-10.6s10.6,4.8,10.6,10.6&#10;&#9;&#9;&#9;C825,559.4,820.2,564.1,814.4,564.1z" style="fill: #adc2c4;" transform="matrix(1, 0, 0, 1, 3.637978807091713e-12, 9.094947017729282e-13)"/><path id="XMLID_587_" class="st0" d="M951.1,530c-13,0-23.5,10.5-23.5,23.5c0,13,10.5,23.5,23.5,23.5c13,0,23.5-10.5,23.5-23.5&#10;&#9;&#9;&#9;C974.6,540.5,964,530,951.1,530z M951.1,564.1c-5.9,0-10.6-4.8-10.6-10.6c0-5.9,4.8-10.6,10.6-10.6c5.9,0,10.6,4.8,10.6,10.6&#10;&#9;&#9;&#9;C961.7,559.4,956.9,564.1,951.1,564.1z" style="fill: #adc2c4;" transform="matrix(1, 0, 0, 1, 3.637978807091713e-12, 9.094947017729282e-13)"/><path id="XMLID_590_" class="st0" d="M931.9,453.6l-11,57.1H774.6v31.1H786c4.6-11.1,15.6-19,28.4-19c12.8,0,23.8,7.9,28.4,19h80&#10;&#9;&#9;&#9;c4.6-11.1,15.6-19,28.4-19c12.8,0,23.8,7.9,28.4,19h1.2v-55L964,453.6H931.9z M938.3,487.8v-27.6h22.2l14.4,27.6H938.3z" style="fill: #adc2c4;" transform="matrix(1, 0, 0, 1, 3.637978807091713e-12, 9.094947017729282e-13)"/><path id="XMLID_593_" class="st0" d="M913.6,503.8l12.1-57.3h22.1l7.7-25.5H770.8l-23.1,56.4l32.8,26.4H913.6z M899.6,430.9h5&#10;&#9;&#9;&#9;v62.5h-5V430.9z M871.1,430.9h5v62.5h-5V430.9z M842.7,430.9h5v62.5h-5V430.9z M814.3,430.9h5v62.5h-5V430.9z M785.8,430.9h5v62.5&#10;&#9;&#9;&#9;h-5V430.9z" style="fill: #adc2c4;" transform="matrix(1, 0, 0, 1, 3.637978807091713e-12, 9.094947017729282e-13)"/></g></svg>